<?xml version="1.0" encoding="UTF-8"?>
<svg xmlns="http://www.w3.org/2000/svg" xmlns:xlink="http://www.w3.org/1999/xlink" width="80px" height="90px" viewBox="0 0 80 89" version="1.1">
<g id="surface1">
<path style=" stroke:none;fill-rule:nonzero;fill:rgb(0%,0%,0%);fill-opacity:1;" d="M 39.195312 2.707031 C 39.195312 4.378906 39.210938 4.476562 39.464844 4.476562 C 39.71875 4.476562 39.730469 4.378906 39.730469 3.195312 C 39.746094 1.730469 39.71875 1.714844 40.824219 3.476562 C 41.28125 4.1875 41.53125 4.476562 41.734375 4.476562 C 41.988281 4.476562 42 4.394531 42 2.773438 C 42 1.355469 41.972656 1.078125 41.800781 1.078125 C 41.636719 1.078125 41.601562 1.25 41.601562 1.863281 C 41.601562 2.292969 41.546875 2.640625 41.496094 2.640625 C 41.445312 2.640625 41.160156 2.261719 40.863281 1.796875 C 40.351562 0.960938 40.320312 0.945312 39.777344 0.945312 L 39.195312 0.945312 Z M 39.195312 2.707031 "/>
<path style=" stroke:none;fill-rule:nonzero;fill:rgb(0%,0%,0%);fill-opacity:1;" d="M 36.503906 1.167969 C 36.199219 1.21875 36.160156 1.273438 36.199219 1.640625 C 36.242188 1.871094 36.292969 2.632812 36.347656 3.351562 L 36.429688 4.636719 L 37.226562 4.550781 C 37.679688 4.511719 38.183594 4.476562 38.347656 4.476562 C 38.550781 4.476562 38.667969 4.394531 38.667969 4.277344 C 38.667969 4.136719 38.503906 4.082031 38 4.082031 L 37.335938 4.082031 L 37.335938 3.558594 C 37.335938 3.046875 37.34375 3.03125 37.863281 2.957031 C 38.199219 2.90625 38.398438 2.804688 38.398438 2.683594 C 38.398438 2.539062 38.265625 2.5 37.84375 2.539062 L 37.269531 2.582031 L 37.226562 2.019531 L 37.1875 1.472656 L 37.789062 1.472656 C 38.238281 1.472656 38.398438 1.421875 38.398438 1.273438 C 38.398438 1.117188 38.238281 1.078125 37.640625 1.085938 C 37.210938 1.101562 36.703125 1.140625 36.503906 1.167969 Z M 36.503906 1.167969 "/>
<path style=" stroke:none;fill-rule:nonzero;fill:rgb(0%,0%,0%);fill-opacity:1;" d="M 43.667969 1.441406 C 43.117188 1.78125 42.917969 2.027344 42.789062 2.605469 C 42.457031 4.082031 43.734375 5.109375 45.4375 4.734375 C 46.175781 4.578125 46.199219 4.550781 46.316406 3.867188 C 46.382812 3.476562 46.363281 3.453125 45.921875 3.402344 C 45.484375 3.351562 45.453125 3.367188 45.386719 3.847656 C 45.320312 4.222656 45.222656 4.363281 44.984375 4.414062 C 44.507812 4.535156 44.175781 4.363281 43.9375 3.859375 C 43.734375 3.453125 43.71875 3.285156 43.855469 2.722656 C 43.9375 2.367188 44.105469 1.96875 44.226562 1.835938 C 44.5625 1.472656 45.117188 1.53125 45.507812 1.988281 C 45.738281 2.242188 45.921875 2.359375 46.054688 2.308594 C 46.347656 2.195312 46.316406 2.085938 45.976562 1.769531 C 45.28125 1.152344 44.375 1.027344 43.667969 1.441406 Z M 43.667969 1.441406 "/>
<path style=" stroke:none;fill-rule:nonzero;fill:rgb(0%,0%,0%);fill-opacity:1;" d="M 32.203125 1.753906 C 31.835938 1.835938 31.519531 1.914062 31.496094 1.921875 C 31.445312 1.96875 32 5.164062 32.070312 5.230469 C 32.089844 5.25 32.304688 5.246094 32.53125 5.191406 L 32.960938 5.097656 L 32.863281 4.328125 C 32.773438 3.574219 32.773438 3.558594 33.109375 3.558594 C 33.585938 3.558594 33.867188 3.425781 33.867188 3.203125 C 33.867188 3.046875 33.757812 3.03125 33.320312 3.097656 C 32.707031 3.203125 32.53125 3.078125 32.53125 2.484375 C 32.53125 2.175781 32.589844 2.136719 33.132812 2.042969 C 33.503906 1.988281 33.734375 1.902344 33.734375 1.78125 C 33.734375 1.574219 33.199219 1.5625 32.203125 1.753906 Z M 32.203125 1.753906 "/>
<path style=" stroke:none;fill-rule:nonzero;fill:rgb(0%,0%,0%);fill-opacity:1;" d="M 46.957031 3.386719 C 46.800781 4.289062 46.679688 5.042969 46.695312 5.058594 C 46.71875 5.074219 46.917969 5.125 47.15625 5.164062 L 47.574219 5.246094 L 47.796875 4.039062 C 47.917969 3.371094 48.050781 2.640625 48.09375 2.398438 C 48.167969 1.921875 48.011719 1.730469 47.523438 1.730469 C 47.277344 1.730469 47.226562 1.886719 46.957031 3.386719 Z M 46.957031 3.386719 "/>
<path style=" stroke:none;fill-rule:nonzero;fill:rgb(0%,0%,0%);fill-opacity:1;" d="M 49.136719 2.277344 C 49.105469 2.367188 48.890625 3.085938 48.683594 3.882812 C 48.304688 5.25 48.304688 5.503906 48.683594 5.519531 C 48.734375 5.519531 48.90625 4.976562 49.078125 4.34375 C 49.242188 3.691406 49.414062 3.164062 49.457031 3.164062 C 49.492188 3.164062 49.746094 3.808594 50 4.578125 C 50.386719 5.726562 50.507812 5.976562 50.738281 5.976562 C 50.960938 5.976562 51.054688 5.738281 51.429688 4.410156 C 51.75 3.246094 51.816406 2.824219 51.695312 2.75 C 51.414062 2.582031 51.375 2.632812 51.199219 3.425781 C 51.109375 3.859375 50.988281 4.207031 50.945312 4.207031 C 50.894531 4.207031 50.722656 3.808594 50.542969 3.300781 C 50.222656 2.292969 50.238281 2.316406 49.628906 2.191406 C 49.324219 2.121094 49.1875 2.144531 49.136719 2.277344 Z M 49.136719 2.277344 "/>
<path style=" stroke:none;fill-rule:nonzero;fill:rgb(0%,0%,0%);fill-opacity:1;" d="M 28.867188 2.515625 C 27.910156 2.707031 27.335938 3.371094 27.335938 4.277344 C 27.335938 5.296875 28.09375 6.066406 29.105469 6.066406 C 30.253906 6.066406 31.0625 5.363281 31.0625 4.378906 C 31.0625 3.097656 30.082031 2.261719 28.867188 2.515625 Z M 29.730469 3.320312 C 30.050781 3.847656 30.214844 4.785156 30.050781 5.246094 C 29.902344 5.636719 29.324219 5.777344 28.972656 5.488281 C 28.667969 5.246094 28.265625 4.34375 28.265625 3.882812 C 28.265625 2.90625 29.242188 2.53125 29.730469 3.320312 Z M 29.730469 3.320312 "/>
<path style=" stroke:none;fill-rule:nonzero;fill:rgb(0%,0%,0%);fill-opacity:1;" d="M 52.277344 4.683594 C 51.957031 5.519531 51.761719 6.25 51.816406 6.300781 C 51.917969 6.390625 53.683594 7.085938 53.816406 7.085938 C 53.839844 7.085938 53.867188 6.988281 53.867188 6.886719 C 53.867188 6.78125 53.625 6.597656 53.332031 6.480469 C 52.746094 6.25 52.746094 6.25 52.945312 5.660156 C 53.109375 5.199219 53.167969 5.191406 53.800781 5.4375 C 54.1875 5.59375 54.257812 5.59375 54.324219 5.4375 C 54.375 5.3125 54.226562 5.191406 53.867188 5.042969 C 53.570312 4.925781 53.332031 4.785156 53.332031 4.71875 C 53.332031 4.628906 53.585938 3.988281 53.683594 3.847656 C 53.691406 3.816406 53.9375 3.898438 54.195312 4 C 54.8125 4.261719 54.933594 4.261719 54.933594 4.03125 C 54.933594 3.859375 53.363281 3.164062 53 3.164062 C 52.917969 3.164062 52.597656 3.847656 52.277344 4.683594 Z M 52.277344 4.683594 "/>
<path style=" stroke:none;fill-rule:nonzero;fill:rgb(0%,0%,0%);fill-opacity:1;" d="M 23.480469 4.484375 C 23 4.695312 22.597656 4.890625 22.574219 4.917969 C 22.53125 4.957031 23.824219 7.863281 23.9375 7.972656 C 24.011719 8.0625 25.996094 7.191406 25.996094 7.070312 C 25.996094 6.847656 25.722656 6.820312 25.253906 7.019531 C 24.984375 7.125 24.71875 7.210938 24.664062 7.210938 C 24.546875 7.210938 24.195312 6.308594 24.292969 6.25 C 24.308594 6.222656 24.53125 6.101562 24.777344 5.984375 C 25 5.867188 25.199219 5.726562 25.199219 5.660156 C 25.199219 5.414062 25 5.414062 24.515625 5.660156 L 24.003906 5.910156 L 23.800781 5.4375 C 23.691406 5.179688 23.601562 4.941406 23.601562 4.917969 C 23.601562 4.890625 23.839844 4.769531 24.136719 4.652344 C 24.628906 4.460938 24.777344 4.207031 24.457031 4.136719 C 24.390625 4.105469 23.945312 4.261719 23.480469 4.484375 Z M 23.480469 4.484375 "/>
<path style=" stroke:none;fill-rule:nonzero;fill:rgb(0%,0%,0%);fill-opacity:1;" d="M 55 5.671875 C 54.628906 6.480469 54.324219 7.175781 54.292969 7.210938 C 54.242188 7.359375 56.226562 8.167969 56.382812 8.0625 C 56.636719 7.921875 56.546875 7.789062 56.109375 7.632812 C 55.320312 7.34375 55.28125 7.308594 55.535156 6.804688 C 55.667969 6.5625 55.789062 6.355469 55.804688 6.324219 C 55.8125 6.308594 56.054688 6.390625 56.332031 6.507812 C 56.734375 6.664062 56.867188 6.679688 56.949219 6.546875 C 57.015625 6.429688 56.882812 6.308594 56.519531 6.152344 C 55.929688 5.894531 55.929688 5.894531 56.199219 5.386719 C 56.445312 4.925781 56.398438 4.941406 57.023438 5.191406 C 57.410156 5.347656 57.53125 5.363281 57.625 5.230469 C 57.695312 5.109375 57.457031 4.941406 56.769531 4.628906 C 56.25 4.410156 55.804688 4.207031 55.742188 4.207031 C 55.707031 4.207031 55.355469 4.859375 55 5.671875 Z M 55 5.671875 "/>
<path style=" stroke:none;fill-rule:nonzero;fill:rgb(0%,0%,0%);fill-opacity:1;" d="M 57.65625 6.988281 L 56.832031 8.453125 L 57.210938 8.699219 C 57.441406 8.832031 57.625 8.921875 57.65625 8.898438 C 57.679688 8.867188 58.011719 8.285156 58.398438 7.605469 C 58.789062 6.921875 59.121094 6.339844 59.144531 6.308594 C 59.175781 6.289062 59.34375 6.363281 59.53125 6.480469 C 59.933594 6.746094 59.96875 7.210938 59.597656 7.539062 C 59.390625 7.738281 59.261719 7.753906 59.011719 7.632812 C 58.601562 7.449219 58.535156 7.605469 58.535156 8.660156 C 58.535156 9.378906 58.554688 9.429688 58.9375 9.628906 C 59.144531 9.734375 59.34375 9.824219 59.398438 9.824219 C 59.441406 9.824219 59.464844 9.476562 59.464844 9.039062 C 59.464844 8.300781 59.480469 8.253906 59.785156 8.253906 C 60.625 8.253906 61.011719 7.265625 60.417969 6.640625 C 60.164062 6.375 58.691406 5.519531 58.519531 5.519531 C 58.496094 5.519531 58.09375 6.183594 57.65625 6.988281 Z M 57.65625 6.988281 "/>
<path style=" stroke:none;fill-rule:nonzero;fill:rgb(0%,0%,0%);fill-opacity:1;" d="M 20.484375 5.910156 C 18.800781 6.421875 18.691406 8.765625 20.335938 9.378906 C 20.824219 9.5625 20.988281 9.5625 21.429688 9.429688 C 22.121094 9.210938 22.597656 8.863281 22.929688 8.320312 C 23.214844 7.878906 23.214844 7.863281 22.984375 7.472656 C 22.722656 7.042969 22.574219 7.003906 22.203125 7.265625 C 21.949219 7.433594 21.949219 7.472656 22.15625 7.90625 C 22.375 8.351562 22.375 8.367188 22.082031 8.640625 C 21.464844 9.195312 20.625 8.832031 20.1875 7.804688 C 19.761719 6.804688 20.117188 6.207031 21.0625 6.339844 C 21.480469 6.390625 21.636719 6.363281 21.695312 6.222656 C 21.734375 6.117188 21.734375 6 21.703125 5.976562 C 21.570312 5.828125 20.839844 5.804688 20.484375 5.910156 Z M 20.484375 5.910156 "/>
<path style=" stroke:none;fill-rule:nonzero;fill:rgb(0%,0%,0%);fill-opacity:1;" d="M 37.53125 6.117188 C 26.398438 7.027344 16.835938 12.566406 10.773438 21.628906 C 8.011719 25.75 6.226562 30.519531 5.4375 35.867188 C 5.1875 37.589844 5.222656 43.050781 5.507812 44.855469 C 6.496094 51.15625 8.9375 56.652344 12.878906 61.527344 C 15.039062 64.175781 18.625 67.269531 21.734375 69.160156 C 23.296875 70.101562 26.292969 71.527344 28.050781 72.164062 C 29.777344 72.792969 32.976562 73.578125 35 73.875 C 37.277344 74.226562 42.730469 74.226562 45 73.875 C 50.824219 73 56.308594 70.75 60.90625 67.371094 C 66.90625 62.949219 71.445312 56.484375 73.46875 49.433594 C 75.507812 42.347656 75.148438 34.734375 72.46875 27.910156 C 70.789062 23.625 68.25 19.785156 64.933594 16.429688 C 59.414062 10.867188 52.53125 7.449219 44.664062 6.363281 C 43.167969 6.152344 38.875 6.015625 37.53125 6.117188 Z M 39.175781 9.003906 C 39.375 9.171875 39.507812 9.585938 39.664062 10.519531 C 39.800781 11.222656 39.96875 11.820312 40.050781 11.851562 C 40.132812 11.871094 40.921875 11.863281 41.800781 11.804688 L 43.386719 11.714844 L 43.734375 10.621094 C 43.988281 9.851562 44.160156 9.496094 44.34375 9.429688 C 44.480469 9.378906 45.199219 9.378906 45.929688 9.429688 C 47.722656 9.578125 47.796875 9.652344 47.664062 11.457031 L 47.574219 12.757812 L 49.121094 13.253906 C 49.96875 13.527344 50.738281 13.742188 50.824219 13.714844 C 50.90625 13.691406 51.28125 13.234375 51.652344 12.691406 C 52.238281 11.851562 52.402344 11.714844 52.773438 11.679688 C 53.296875 11.628906 55.015625 12.359375 55.214844 12.707031 C 55.417969 13.085938 55.351562 13.664062 55 14.578125 C 54.8125 15.058594 54.664062 15.488281 54.664062 15.554688 C 54.664062 15.660156 57.34375 17.398438 57.507812 17.398438 C 57.558594 17.398438 58.011719 17.042969 58.550781 16.613281 C 59.867188 15.527344 60.066406 15.554688 61.636719 16.992188 C 62.335938 17.632812 62.304688 17.980469 61.449219 19.1875 L 60.773438 20.148438 L 61.25 20.695312 C 61.503906 21 62.015625 21.5625 62.359375 21.9375 L 63 22.640625 L 64.003906 22.175781 C 64.949219 21.730469 65.742188 21.585938 66.078125 21.804688 C 66.347656 21.992188 67.320312 23.46875 67.410156 23.847656 C 67.492188 24.1875 67.410156 24.304688 66.449219 25.179688 L 65.402344 26.15625 L 66.0625 27.382812 C 67.082031 29.261719 66.988281 29.1875 68 29.027344 C 68.480469 28.953125 69.09375 28.886719 69.359375 28.886719 C 69.949219 28.886719 70.105469 29.070312 70.542969 30.28125 C 70.8125 30.984375 70.824219 31.15625 70.691406 31.601562 C 70.542969 32.082031 70.46875 32.148438 69.425781 32.582031 C 68.46875 32.996094 68.332031 33.085938 68.371094 33.351562 C 68.480469 33.964844 69.054688 36.355469 69.121094 36.414062 C 69.160156 36.460938 69.777344 36.535156 70.484375 36.578125 C 71.53125 36.636719 71.785156 36.703125 71.949219 36.917969 C 72.210938 37.265625 72.210938 39.757812 71.949219 39.972656 C 71.835938 40.046875 71.199219 40.195312 70.519531 40.285156 L 69.261719 40.453125 L 69.1875 44.003906 L 69.960938 44.226562 C 71.75 44.707031 71.800781 44.789062 71.679688 46.363281 C 71.5625 47.933594 71.480469 48 69.574219 48.082031 L 68.09375 48.140625 L 67.640625 49.640625 C 67.203125 51.105469 67.203125 51.140625 67.441406 51.34375 C 67.574219 51.445312 68.066406 51.808594 68.503906 52.148438 C 69.507812 52.910156 69.53125 53.085938 68.839844 54.316406 C 67.984375 55.847656 68.027344 55.832031 66.292969 55.308594 C 65.675781 55.128906 65.164062 54.996094 65.148438 55.027344 C 64.574219 55.863281 63.46875 57.644531 63.46875 57.742188 C 63.46875 57.816406 63.824219 58.324219 64.277344 58.871094 C 65.238281 60.046875 65.238281 60.167969 64.242188 61.261719 C 63.617188 61.972656 63.132812 62.304688 62.773438 62.304688 C 62.695312 62.304688 62.171875 61.980469 61.636719 61.578125 C 61.09375 61.1875 60.574219 60.871094 60.492188 60.914062 C 60.402344 60.949219 59.785156 61.460938 59.121094 62.046875 L 57.894531 63.117188 L 58.347656 64.09375 C 58.839844 65.152344 58.90625 65.75 58.601562 66.1875 C 58.347656 66.527344 56.917969 67.402344 56.601562 67.402344 C 56.464844 67.402344 55.921875 66.957031 55.355469 66.417969 C 54.8125 65.882812 54.324219 65.441406 54.261719 65.441406 C 54.09375 65.441406 51.332031 66.90625 51.332031 66.980469 C 51.332031 67.03125 51.429688 67.59375 51.53125 68.222656 C 51.75 69.488281 51.667969 69.863281 51.183594 70.101562 C 50.804688 70.300781 49.332031 70.664062 48.957031 70.664062 C 48.625 70.664062 47.976562 69.910156 47.574219 69.09375 C 47.121094 68.15625 47.1875 68.183594 45.894531 68.472656 C 45.253906 68.597656 44.507812 68.769531 44.242188 68.851562 L 43.734375 68.976562 L 43.734375 69.722656 C 43.71875 70.730469 43.550781 71.566406 43.28125 71.808594 C 43.027344 72.074219 40.996094 72.269531 40.625 72.074219 C 40.304688 71.914062 39.902344 70.988281 39.710938 69.945312 L 39.5625 69.09375 L 36.144531 69.09375 L 35.707031 70.21875 C 35.164062 71.652344 34.984375 71.75 33.429688 71.484375 C 32.828125 71.378906 32.238281 71.210938 32.136719 71.105469 C 31.988281 70.964844 31.933594 70.582031 31.933594 69.515625 L 31.933594 68.132812 L 30.351562 67.695312 C 28.855469 67.304688 28.75 67.296875 28.570312 67.503906 C 28.480469 67.621094 28.117188 68.089844 27.796875 68.523438 C 27.203125 69.332031 26.785156 69.566406 26.308594 69.398438 C 26.175781 69.359375 25.625 69.058594 25.105469 68.730469 C 23.972656 68.050781 23.945312 67.96875 24.464844 66.484375 C 24.648438 65.964844 24.800781 65.457031 24.800781 65.359375 C 24.800781 65.269531 24.160156 64.8125 23.371094 64.347656 L 21.957031 63.496094 L 21.414062 63.902344 C 21.109375 64.140625 20.667969 64.488281 20.425781 64.6875 C 19.710938 65.285156 19.324219 65.195312 18.25 64.175781 C 17.640625 63.597656 17.335938 63.207031 17.335938 63.015625 C 17.335938 62.84375 17.640625 62.253906 18 61.707031 C 18.363281 61.15625 18.667969 60.640625 18.667969 60.558594 C 18.667969 60.476562 18.148438 59.90625 17.523438 59.292969 L 16.363281 58.15625 L 15.28125 58.597656 C 14.144531 59.070312 13.667969 59.136719 13.304688 58.871094 C 13 58.636719 12.136719 57.058594 12.136719 56.734375 C 12.136719 56.550781 12.492188 56.136719 13.132812 55.582031 C 13.683594 55.101562 14.136719 54.640625 14.136719 54.589844 C 14.136719 54.382812 12.492188 51.703125 12.335938 51.652344 C 12.238281 51.617188 11.734375 51.703125 11.199219 51.851562 C 10.355469 52.082031 10.1875 52.097656 9.882812 51.941406 C 9.324219 51.652344 9.09375 51.328125 8.9375 50.492188 C 8.652344 49.085938 8.691406 49.003906 10.105469 48.355469 C 10.773438 48.027344 11.332031 47.710938 11.332031 47.636719 C 11.316406 47.554688 11.132812 46.785156 10.894531 45.921875 L 10.46875 44.359375 L 9.226562 44.292969 C 8.066406 44.226562 7.960938 44.195312 7.65625 43.863281 C 7.375 43.53125 7.335938 43.359375 7.335938 42.449219 C 7.335938 40.867188 7.507812 40.691406 9.144531 40.519531 C 9.695312 40.453125 10.171875 40.371094 10.199219 40.351562 C 10.289062 40.253906 10.289062 36.96875 10.214844 36.875 C 10.164062 36.835938 9.648438 36.613281 9.09375 36.394531 C 8.167969 36.039062 8.050781 35.964844 7.910156 35.527344 C 7.789062 35.179688 7.796875 34.863281 7.929688 34.175781 C 8.167969 32.910156 8.332031 32.804688 10.082031 32.804688 L 11.449219 32.804688 L 11.601562 32.242188 C 11.679688 31.941406 11.867188 31.304688 12.015625 30.832031 C 12.148438 30.363281 12.269531 29.875 12.269531 29.757812 C 12.269531 29.640625 11.867188 29.277344 11.375 28.9375 C 10.304688 28.203125 10.132812 28.027344 10.132812 27.621094 C 10.132812 27.148438 11.027344 25.527344 11.414062 25.269531 C 11.75 25.0625 11.800781 25.074219 12.910156 25.421875 C 13.550781 25.621094 14.136719 25.816406 14.210938 25.84375 C 14.332031 25.882812 15.371094 24.367188 16.054688 23.183594 C 16.09375 23.101562 15.773438 22.589844 15.335938 22.042969 C 14.851562 21.457031 14.53125 20.933594 14.53125 20.742188 C 14.53125 20.347656 16.183594 18.574219 16.546875 18.574219 C 16.695312 18.574219 17.320312 18.914062 17.945312 19.3125 L 19.078125 20.058594 L 20.320312 18.847656 L 21.570312 17.621094 L 21.054688 16.578125 C 20.492188 15.4375 20.453125 15.214844 20.707031 14.917969 C 20.988281 14.578125 22.089844 13.75 22.457031 13.609375 C 22.960938 13.425781 23.164062 13.542969 24.277344 14.617188 L 25.28125 15.585938 L 26.679688 14.773438 C 27.441406 14.328125 28.082031 13.949219 28.109375 13.9375 C 28.132812 13.914062 28.082031 13.335938 27.984375 12.640625 C 27.789062 11.167969 27.8125 11.132812 29.039062 10.585938 C 29.644531 10.304688 30.050781 10.214844 30.4375 10.246094 C 30.988281 10.28125 31.011719 10.304688 31.667969 11.421875 C 32.039062 12.042969 32.386719 12.589844 32.425781 12.632812 C 32.46875 12.671875 33.214844 12.539062 34.09375 12.34375 L 35.691406 11.976562 L 35.789062 10.671875 C 35.855469 9.484375 35.894531 9.34375 36.210938 9.070312 C 36.503906 8.816406 36.695312 8.78125 37.722656 8.78125 C 38.652344 8.78125 38.957031 8.832031 39.175781 9.003906 Z M 39.175781 9.003906 "/>
<path style=" stroke:none;fill-rule:nonzero;fill:rgb(0%,0%,0%);fill-opacity:1;" d="M 38.496094 16.703125 C 38.320312 16.863281 38.398438 17.160156 38.921875 18.21875 C 39.746094 19.90625 40.050781 21.132812 40.050781 22.8125 C 40.050781 24.683594 39.746094 25.761719 38.519531 28.128906 C 37.425781 30.269531 36.882812 31.800781 36.667969 33.324219 C 36.347656 35.59375 36.972656 37.722656 38.46875 39.527344 L 39.078125 40.253906 L 36.382812 43.679688 C 34.902344 45.558594 33.652344 47.140625 33.601562 47.199219 C 33.554688 47.25 33.238281 46.957031 32.917969 46.550781 C 32.589844 46.132812 31.308594 44.535156 30.082031 43.011719 L 27.84375 40.230469 L 28.921875 38.558594 C 29.933594 36.976562 30.402344 36.121094 30.402344 35.808594 C 30.402344 35.726562 30.253906 35.519531 30.066406 35.351562 C 29.546875 34.824219 28.371094 34.929688 27.910156 35.527344 C 27.664062 35.832031 27.695312 36.191406 27.976562 36.652344 L 28.230469 37.042969 L 27.695312 38.027344 C 27.402344 38.558594 27.105469 39.054688 27.054688 39.121094 C 26.933594 39.25 25.894531 37.722656 25.535156 36.917969 C 24.574219 34.691406 24.582031 32.4375 25.585938 30.386719 C 26.183594 29.144531 27.089844 28.078125 29.71875 25.488281 C 33.132812 22.140625 33.9375 20.933594 33.839844 19.328125 C 33.800781 18.742188 33.757812 18.640625 33.535156 18.640625 C 33.347656 18.640625 33.25 18.765625 33.167969 19.136719 C 32.917969 20.335938 32.136719 21.3125 28.554688 24.824219 C 26.988281 26.378906 25.417969 28.027344 25.050781 28.492188 C 23.757812 30.148438 22.945312 32.25 22.929688 33.921875 C 22.929688 35.816406 23.839844 37.984375 25.371094 39.65625 L 26.011719 40.359375 L 23 44.121094 L 19.984375 47.878906 L 26.449219 47.945312 L 32.929688 48.011719 L 29.664062 52.023438 L 26.398438 56.039062 L 32.851562 56.070312 L 39.292969 56.105469 L 36.109375 60.027344 L 32.917969 63.9375 L 33.429688 63.96875 C 34.574219 64.027344 47.203125 64.074219 47.203125 64.003906 C 47.203125 63.96875 45.738281 62.164062 43.945312 60.027344 L 40.691406 56.105469 L 47.210938 56.039062 L 53.71875 55.972656 L 50.46875 52.03125 C 48.667969 49.855469 47.203125 48.050781 47.203125 48.011719 C 47.203125 47.96875 50.082031 47.933594 53.617188 47.917969 L 60.03125 47.878906 L 56.949219 43.976562 L 53.867188 40.078125 L 54.160156 39.601562 C 54.324219 39.34375 54.835938 38.546875 55.304688 37.84375 C 56.242188 36.414062 56.414062 35.859375 56.078125 35.363281 C 55.8125 34.941406 55.082031 34.734375 54.464844 34.90625 C 53.734375 35.113281 53.535156 35.765625 53.945312 36.628906 L 54.160156 37.074219 L 52.878906 38.953125 L 52.640625 38.648438 C 52.105469 37.984375 51.496094 36.5625 51.332031 35.660156 C 51.132812 34.550781 51.226562 33.53125 51.695312 31.238281 C 52.136719 29.019531 52.238281 26.875 51.949219 25.585938 C 51.679688 24.394531 50.921875 22.828125 50.097656 21.769531 C 49.441406 20.917969 47.292969 18.832031 46.832031 18.582031 C 46.25 18.285156 46.503906 18.847656 47.375 19.800781 C 48.570312 21.117188 49.242188 22.019531 49.785156 23.117188 C 50.863281 25.214844 50.976562 26.992188 50.253906 30.320312 C 49.894531 31.976562 49.8125 32.644531 49.8125 33.972656 C 49.8125 35.476562 49.835938 35.699219 50.222656 36.753906 C 50.453125 37.382812 50.976562 38.425781 51.398438 39.070312 L 52.148438 40.246094 L 49.390625 43.574219 C 47.863281 45.417969 46.585938 46.941406 46.519531 46.96875 C 46.445312 47.023438 41.28125 40.898438 40.894531 40.296875 C 40.839844 40.195312 41.25 39.433594 42 38.308594 C 43.011719 36.785156 43.199219 36.414062 43.199219 35.964844 C 43.199219 35.542969 43.117188 35.371094 42.851562 35.164062 C 42.203125 34.667969 41.078125 34.875 40.804688 35.542969 C 40.667969 35.84375 40.691406 36.015625 40.894531 36.472656 L 41.144531 37.042969 L 40.542969 37.984375 C 40.214844 38.507812 39.894531 38.9375 39.851562 38.9375 C 39.679688 38.9375 38.816406 37.027344 38.585938 36.191406 C 38.429688 35.570312 38.386719 34.996094 38.429688 33.972656 C 38.496094 32.53125 38.800781 31.496094 40.253906 27.8125 C 41.144531 25.527344 41.265625 24.980469 41.265625 23.011719 C 41.265625 21.421875 41.226562 21.140625 40.894531 20.179688 C 40.675781 19.585938 40.214844 18.625 39.851562 18.027344 C 39.09375 16.785156 38.75 16.445312 38.496094 16.703125 Z M 45.4375 48.53125 C 43.9375 50.507812 40.050781 55.375 40 55.375 C 39.949219 55.375 36.0625 50.507812 34.5625 48.53125 L 34.105469 47.945312 L 45.894531 47.945312 Z M 45.4375 48.53125 "/>
<path style=" stroke:none;fill-rule:nonzero;fill:rgb(0%,0%,0%);fill-opacity:1;" d="M 60.738281 8.742188 L 59.835938 10.140625 L 60.148438 10.386719 C 60.304688 10.503906 60.507812 10.59375 60.585938 10.570312 C 60.667969 10.539062 61.125 9.917969 61.585938 9.171875 L 62.457031 7.824219 L 62.148438 7.589844 C 61.972656 7.449219 61.785156 7.34375 61.734375 7.34375 C 61.679688 7.34375 61.226562 7.972656 60.738281 8.742188 Z M 60.738281 8.742188 "/>
<path style=" stroke:none;fill-rule:nonzero;fill:rgb(0%,0%,0%);fill-opacity:1;" d="M 17.089844 8.085938 C 16.546875 8.476562 16.28125 8.75 16.316406 8.867188 C 16.53125 9.394531 18.167969 11.507812 18.304688 11.429688 C 18.839844 11.140625 20 10.296875 20 10.199219 C 20 9.925781 19.695312 9.972656 19.257812 10.304688 L 18.773438 10.660156 L 18.453125 10.28125 C 18.28125 10.058594 18.132812 9.851562 18.132812 9.800781 C 18.132812 9.75 18.320312 9.585938 18.535156 9.429688 C 18.757812 9.277344 18.9375 9.070312 18.9375 8.964844 C 18.9375 8.714844 18.757812 8.726562 18.363281 9.039062 C 17.917969 9.394531 17.796875 9.363281 17.46875 8.914062 L 17.1875 8.527344 L 17.730469 8.179688 C 18.164062 7.90625 18.238281 7.789062 18.117188 7.65625 C 18.042969 7.550781 17.960938 7.472656 17.945312 7.472656 C 17.945312 7.484375 17.558594 7.757812 17.089844 8.085938 Z M 17.089844 8.085938 "/>
<path style=" stroke:none;fill-rule:nonzero;fill:rgb(0%,0%,0%);fill-opacity:1;" d="M 62.441406 9.527344 C 61.109375 11.183594 61.175781 11.082031 61.382812 11.25 C 61.546875 11.375 61.71875 11.222656 62.359375 10.453125 C 62.851562 9.839844 63.148438 9.578125 63.167969 9.703125 C 63.199219 9.824219 63.164062 10.464844 63.082031 11.140625 C 62.960938 12.316406 63.027344 12.691406 63.347656 12.691406 C 63.519531 12.691406 65.484375 10.199219 65.425781 10.046875 C 65.320312 9.734375 65.097656 9.851562 64.664062 10.414062 C 64.195312 11.015625 63.9375 11.183594 64.054688 10.761719 C 64.09375 10.644531 64.136719 10.199219 64.144531 9.785156 C 64.1875 9.070312 64.160156 9.003906 63.773438 8.699219 L 63.363281 8.386719 Z M 62.441406 9.527344 "/>
<path style=" stroke:none;fill-rule:nonzero;fill:rgb(0%,0%,0%);fill-opacity:1;" d="M 14.160156 10.214844 L 13.855469 10.464844 L 14.882812 11.746094 C 15.4375 12.449219 15.945312 13.035156 16.011719 13.0625 C 16.144531 13.113281 17.730469 11.925781 17.730469 11.769531 C 17.730469 11.507812 17.425781 11.53125 17.054688 11.835938 C 16.832031 12.019531 16.601562 12.175781 16.546875 12.175781 C 16.480469 12.175781 16.054688 11.679688 15.585938 11.066406 C 15.117188 10.464844 14.679688 9.972656 14.597656 9.972656 C 14.53125 9.972656 14.332031 10.074219 14.160156 10.214844 Z M 14.160156 10.214844 "/>
<path style=" stroke:none;fill-rule:nonzero;fill:rgb(0%,0%,0%);fill-opacity:1;" d="M 65.601562 11.496094 C 64.949219 11.804688 64.53125 12.472656 64.53125 13.195312 C 64.53125 13.714844 64.597656 13.847656 65.171875 14.410156 C 65.996094 15.214844 66.667969 15.371094 67.171875 14.875 L 67.523438 14.535156 L 67.203125 14.195312 L 66.882812 13.871094 L 66.503906 14.222656 C 66.144531 14.566406 66.109375 14.578125 65.757812 14.378906 C 65.238281 14.105469 65.1875 13.367188 65.667969 12.753906 C 66.027344 12.292969 66.628906 11.917969 67 11.917969 C 67.359375 11.917969 67.730469 12.410156 67.730469 12.894531 C 67.730469 13.253906 67.789062 13.351562 68 13.351562 C 68.199219 13.351562 68.265625 13.253906 68.265625 12.980469 C 68.265625 12.464844 67.8125 11.820312 67.210938 11.523438 C 66.5625 11.199219 66.199219 11.199219 65.601562 11.496094 Z M 65.601562 11.496094 "/>
<path style=" stroke:none;fill-rule:nonzero;fill:rgb(0%,0%,0%);fill-opacity:1;" d="M 12.015625 12.226562 L 11.703125 12.539062 L 12.851562 13.730469 C 13.496094 14.378906 14.039062 14.917969 14.078125 14.917969 C 14.105469 14.925781 14.507812 14.601562 14.960938 14.195312 C 15.601562 13.640625 15.742188 13.441406 15.625 13.320312 C 15.507812 13.203125 15.355469 13.269531 14.984375 13.625 L 14.507812 14.070312 L 13.496094 12.980469 C 12.917969 12.398438 12.425781 11.917969 12.386719 11.917969 C 12.34375 11.917969 12.171875 12.058594 12.015625 12.226562 Z M 12.015625 12.226562 "/>
<path style=" stroke:none;fill-rule:nonzero;fill:rgb(0%,0%,0%);fill-opacity:1;" d="M 10.199219 14.121094 C 8.921875 14.875 8.988281 16.679688 10.289062 17.347656 C 10.8125 17.605469 11.695312 17.53125 12.1875 17.191406 C 12.695312 16.820312 13.109375 15.917969 13.011719 15.386719 C 12.773438 14.144531 11.265625 13.476562 10.199219 14.121094 Z M 11.75 15.164062 C 12.492188 15.882812 12.597656 16.355469 12.105469 16.664062 C 11.652344 16.953125 11.09375 16.769531 10.4375 16.140625 C 9.574219 15.296875 9.664062 14.527344 10.640625 14.527344 C 11.011719 14.527344 11.226562 14.636719 11.75 15.164062 Z M 11.75 15.164062 "/>
<path style=" stroke:none;fill-rule:nonzero;fill:rgb(0%,0%,0%);fill-opacity:1;" d="M 70.425781 15.660156 C 70.335938 15.695312 70.199219 15.867188 70.132812 16.035156 C 70.015625 16.324219 69.949219 16.355469 69.464844 16.273438 C 68.816406 16.167969 68.320312 16.445312 68.199219 16.992188 C 68.09375 17.464844 68.265625 17.828125 68.875 18.441406 C 69.136719 18.691406 69.480469 19.070312 69.648438 19.277344 L 69.960938 19.667969 L 70.117188 19.1875 C 70.238281 18.816406 70.425781 18.625 70.8125 18.441406 C 71.316406 18.183594 71.570312 17.804688 71.109375 17.980469 C 70.425781 18.253906 70.386719 18.25 70.574219 17.738281 C 70.675781 17.414062 70.878906 17.191406 71.199219 17.027344 C 71.785156 16.746094 71.867188 16.339844 71.414062 15.894531 C 71.09375 15.585938 70.804688 15.519531 70.425781 15.660156 Z M 71.332031 16.40625 C 71.332031 16.613281 71.09375 16.804688 70.976562 16.695312 C 70.863281 16.582031 71.042969 16.222656 71.199219 16.222656 C 71.265625 16.222656 71.332031 16.304688 71.332031 16.40625 Z M 69.761719 16.953125 C 69.882812 17.058594 69.464844 18.183594 69.324219 18.183594 C 69.257812 18.183594 69.136719 18.035156 69.039062 17.855469 C 68.921875 17.605469 68.9375 17.472656 69.121094 17.199219 C 69.332031 16.886719 69.597656 16.785156 69.761719 16.953125 Z M 69.761719 16.953125 "/>
<path style=" stroke:none;fill-rule:nonzero;fill:rgb(0%,0%,0%);fill-opacity:1;" d="M 7.679688 17.144531 C 7.1875 17.53125 6.933594 18.078125 6.933594 18.75 C 6.933594 19.859375 8.167969 20.75 9.257812 20.402344 C 9.984375 20.164062 10.667969 19.304688 10.667969 18.609375 C 10.667969 18.128906 10.492188 17.894531 10.222656 17.980469 C 10.066406 18.046875 10.039062 18.136719 10.164062 18.441406 C 10.253906 18.699219 10.238281 18.898438 10.117188 19.121094 C 9.894531 19.535156 9.746094 19.617188 9.175781 19.617188 C 8.757812 19.617188 8.554688 19.511719 8.066406 19.054688 C 7.730469 18.742188 7.46875 18.375 7.46875 18.234375 C 7.46875 17.8125 7.851562 17.414062 8.332031 17.316406 C 8.90625 17.210938 8.972656 16.871094 8.414062 16.871094 C 8.214844 16.871094 7.878906 16.992188 7.679688 17.144531 Z M 7.679688 17.144531 "/>
<path style=" stroke:none;fill-rule:nonzero;fill:rgb(0%,0%,0%);fill-opacity:1;" d="M 72.597656 20.542969 C 71.027344 21.480469 71.054688 21.472656 71.183594 21.679688 C 71.265625 21.820312 71.496094 21.730469 72.1875 21.324219 C 72.664062 21.035156 73.066406 20.828125 73.066406 20.867188 C 73.066406 20.917969 72.789062 21.324219 72.457031 21.796875 C 72.121094 22.25 71.867188 22.65625 71.90625 22.695312 C 71.933594 22.738281 72.34375 22.695312 72.8125 22.621094 C 74.1875 22.414062 74.277344 22.449219 73.46875 22.945312 C 73.066406 23.183594 72.65625 23.441406 72.542969 23.492188 C 72.386719 23.597656 72.386719 23.675781 72.597656 24.019531 L 72.84375 24.417969 L 74.054688 23.699219 C 76.078125 22.515625 75.90625 22.671875 75.640625 22.25 C 75.519531 22.058594 75.402344 21.886719 75.386719 21.867188 C 75.371094 21.835938 74.960938 21.886719 74.480469 21.976562 C 73.988281 22.058594 73.550781 22.09375 73.503906 22.058594 C 73.46875 22.019531 73.683594 21.652344 73.988281 21.238281 C 74.515625 20.503906 74.515625 20.488281 74.308594 20.128906 C 74.175781 19.921875 74.039062 19.75 74.003906 19.75 C 73.957031 19.75 73.332031 20.113281 72.597656 20.542969 Z M 72.597656 20.542969 "/>
<path style=" stroke:none;fill-rule:nonzero;fill:rgb(0%,0%,0%);fill-opacity:1;" d="M 4.644531 21.835938 L 4.425781 22.214844 L 4.96875 22.53125 C 5.28125 22.707031 5.976562 23.0625 6.519531 23.335938 C 7.304688 23.714844 7.53125 23.78125 7.625 23.640625 C 8.027344 23.0625 8.042969 23.085938 6.503906 22.28125 C 5.691406 21.867188 4.984375 21.496094 4.949219 21.480469 C 4.902344 21.457031 4.761719 21.613281 4.644531 21.835938 Z M 4.644531 21.835938 "/>
<path style=" stroke:none;fill-rule:nonzero;fill:rgb(0%,0%,0%);fill-opacity:1;" d="M 3.9375 23.234375 C 3.855469 23.46875 3.957031 23.558594 4.761719 23.882812 C 5.082031 24.019531 5.335938 24.160156 5.335938 24.210938 C 5.335938 24.261719 4.984375 24.34375 4.574219 24.394531 C 3.496094 24.511719 3.265625 24.632812 3.066406 25.082031 C 2.976562 25.320312 2.917969 25.519531 2.945312 25.542969 C 3.042969 25.621094 5.945312 26.925781 6.027344 26.925781 C 6.0625 26.925781 6.144531 26.835938 6.183594 26.71875 C 6.242188 26.5625 5.996094 26.390625 5.117188 26 C 4.480469 25.710938 3.988281 25.453125 4.011719 25.421875 C 4.039062 25.402344 4.574219 25.320312 5.199219 25.246094 C 6.835938 25.03125 7.039062 24.980469 7.121094 24.75 C 7.171875 24.632812 7.1875 24.527344 7.15625 24.5 C 7.148438 24.476562 6.429688 24.136719 5.574219 23.746094 C 4.261719 23.136719 4.011719 23.0625 3.9375 23.234375 Z M 3.9375 23.234375 "/>
<path style=" stroke:none;fill-rule:nonzero;fill:rgb(0%,0%,0%);fill-opacity:1;" d="M 73.839844 24.800781 C 73.296875 24.839844 73.066406 24.90625 73.066406 25.03125 C 73.066406 25.148438 73.265625 25.230469 73.683594 25.253906 C 74.257812 25.296875 74.308594 25.320312 74.492188 25.792969 C 74.695312 26.289062 74.695312 26.304688 74.308594 26.703125 C 73.921875 27.109375 73.90625 27.140625 74.09375 27.554688 L 74.277344 27.984375 L 75.640625 26.769531 C 76.382812 26.105469 77 25.527344 76.988281 25.488281 C 76.988281 25.453125 76.933594 25.269531 76.882812 25.0625 C 76.769531 24.707031 76.761719 24.707031 75.675781 24.734375 C 75.097656 24.75 74.257812 24.773438 73.839844 24.800781 Z M 75.542969 25.570312 L 75.015625 26.015625 L 74.867188 25.660156 C 74.679688 25.230469 74.835938 25.128906 75.601562 25.113281 L 76.0625 25.113281 Z M 75.542969 25.570312 "/>
<path style=" stroke:none;fill-rule:nonzero;fill:rgb(0%,0%,0%);fill-opacity:1;" d="M 2.46875 27.332031 C 1.429688 28.234375 1.613281 29.800781 2.851562 30.371094 C 4.175781 30.984375 5.46875 30.097656 5.46875 28.574219 C 5.46875 28.011719 5.417969 27.878906 4.949219 27.433594 C 4.464844 26.96875 4.375 26.925781 3.691406 26.925781 C 3.042969 26.925781 2.878906 26.976562 2.46875 27.332031 Z M 3.875 27.910156 C 4.96875 28.285156 5.402344 29.027344 4.777344 29.460938 C 4.425781 29.707031 4.121094 29.722656 3.453125 29.535156 C 2.425781 29.246094 1.933594 28.351562 2.558594 27.917969 C 2.929688 27.65625 3.148438 27.65625 3.875 27.910156 Z M 3.875 27.910156 "/>
<path style=" stroke:none;fill-rule:nonzero;fill:rgb(0%,0%,0%);fill-opacity:1;" d="M 76.027344 27.910156 C 75.199219 28.136719 74.492188 28.359375 74.464844 28.390625 C 74.441406 28.417969 74.464844 28.523438 74.53125 28.613281 C 74.628906 28.765625 74.828125 28.746094 75.722656 28.492188 C 76.316406 28.324219 76.835938 28.21875 76.867188 28.257812 C 76.90625 28.300781 76.503906 28.804688 75.988281 29.394531 C 75.269531 30.203125 75.066406 30.519531 75.132812 30.726562 C 75.199219 30.910156 75.289062 30.964844 75.492188 30.898438 C 75.640625 30.859375 76.363281 30.644531 77.089844 30.4375 C 77.84375 30.246094 78.46875 30.03125 78.503906 30.007812 C 78.535156 29.972656 78.535156 29.855469 78.496094 29.75 C 78.429688 29.582031 78.304688 29.585938 77.613281 29.800781 C 77.15625 29.929688 76.800781 30.007812 76.800781 29.972656 C 76.800781 29.929688 77.089844 29.566406 77.441406 29.160156 C 78.050781 28.472656 78.082031 28.402344 77.960938 27.929688 C 77.894531 27.671875 77.773438 27.449219 77.695312 27.464844 C 77.597656 27.464844 76.851562 27.65625 76.027344 27.910156 Z M 76.027344 27.910156 "/>
<path style=" stroke:none;fill-rule:nonzero;fill:rgb(0%,0%,0%);fill-opacity:1;" d="M 1.503906 30.882812 C 1.347656 30.949219 1.125 31.207031 0.996094 31.460938 C 0.824219 31.820312 0.8125 31.976562 0.929688 32.347656 C 1.109375 32.878906 1.398438 33.0625 2.039062 33.0625 C 2.402344 33.0625 2.589844 32.960938 2.976562 32.53125 C 3.496094 31.976562 3.800781 31.917969 4.054688 32.316406 C 4.175781 32.515625 4.136719 32.621094 3.824219 32.878906 C 3.386719 33.25 3.414062 33.691406 3.839844 33.472656 C 4.257812 33.257812 4.398438 32.996094 4.480469 32.367188 C 4.5625 31.851562 4.515625 31.746094 4.226562 31.445312 C 3.667969 30.898438 3.09375 30.972656 2.425781 31.695312 C 1.949219 32.214844 1.835938 32.265625 1.601562 32.148438 C 1.242188 31.953125 1.265625 31.578125 1.667969 31.273438 C 2.070312 30.984375 1.949219 30.691406 1.503906 30.882812 Z M 1.503906 30.882812 "/>
<path style=" stroke:none;fill-rule:nonzero;fill:rgb(0%,0%,0%);fill-opacity:1;" d="M 75.46875 31.695312 C 75.46875 31.820312 75.601562 31.886719 75.839844 31.886719 C 76.363281 31.886719 76.628906 32.125 76.71875 32.695312 C 76.800781 33.132812 76.769531 33.199219 76.332031 33.457031 C 75.894531 33.714844 75.863281 33.78125 75.945312 34.210938 C 75.996094 34.484375 76.042969 34.707031 76.054688 34.722656 C 76.054688 34.722656 76.769531 34.3125 77.640625 33.820312 C 79.003906 33.011719 79.195312 32.855469 79.195312 32.554688 C 79.195312 32.367188 79.144531 32.148438 79.09375 32.074219 C 79.039062 31.992188 78.304688 31.820312 77.46875 31.703125 C 75.601562 31.445312 75.46875 31.445312 75.46875 31.695312 Z M 78.167969 32.242188 C 78.28125 32.347656 77.304688 32.929688 77.171875 32.855469 C 77.105469 32.8125 77.070312 32.644531 77.070312 32.464844 C 77.070312 32.191406 77.121094 32.148438 77.574219 32.148438 C 77.851562 32.148438 78.132812 32.191406 78.167969 32.242188 Z M 78.167969 32.242188 "/>
<path style=" stroke:none;fill-rule:nonzero;fill:rgb(0%,0%,0%);fill-opacity:1;" d="M 0.609375 33.796875 C 0.453125 34.210938 0.535156 34.5 0.839844 34.566406 C 1.652344 34.757812 3.816406 35.128906 3.875 35.078125 C 3.9375 35.046875 4.003906 34.855469 4.023438 34.632812 C 4.09375 34.210938 4.242188 34.261719 1.90625 33.832031 C 1.480469 33.753906 1.042969 33.679688 0.921875 33.640625 C 0.804688 33.597656 0.667969 33.679688 0.609375 33.796875 Z M 0.609375 33.796875 "/>
<path style=" stroke:none;fill-rule:nonzero;fill:rgb(0%,0%,0%);fill-opacity:1;" d="M 77.492188 34.890625 C 76.570312 35.097656 76.054688 35.949219 76.199219 36.992188 C 76.292969 37.65625 76.761719 38.492188 77.039062 38.472656 C 77.136719 38.457031 77.34375 38.441406 77.53125 38.425781 C 77.828125 38.417969 77.863281 38.351562 77.863281 37.960938 C 77.863281 37.503906 77.851562 37.488281 77.410156 37.570312 C 77.015625 37.644531 76.917969 37.605469 76.734375 37.316406 C 76.53125 37.027344 76.53125 36.917969 76.652344 36.601562 C 76.867188 36.105469 77.375 35.867188 78.214844 35.882812 C 79.359375 35.882812 79.851562 36.652344 79.1875 37.363281 C 78.921875 37.644531 78.921875 38.027344 79.195312 38.027344 C 79.441406 38.027344 79.867188 37.191406 79.867188 36.71875 C 79.867188 35.46875 78.75 34.589844 77.492188 34.890625 Z M 77.492188 34.890625 "/>
<path style=" stroke:none;fill-rule:nonzero;fill:rgb(0%,0%,0%);fill-opacity:1;" d="M 2.070312 36.039062 C 1.109375 36.289062 0.289062 36.546875 0.238281 36.636719 C 0.1875 36.71875 0.132812 36.941406 0.132812 37.125 C 0.132812 37.4375 0.28125 37.523438 1.75 38.167969 C 2.640625 38.558594 3.429688 38.886719 3.480469 38.914062 C 3.550781 38.9375 3.601562 38.871094 3.601562 38.753906 C 3.601562 38.640625 3.363281 38.425781 3.050781 38.285156 C 2.679688 38.085938 2.53125 37.945312 2.589844 37.8125 C 2.625 37.695312 2.664062 37.4375 2.664062 37.242188 C 2.664062 36.917969 2.730469 36.835938 3.183594 36.71875 C 3.636719 36.601562 3.707031 36.535156 3.773438 36.105469 C 3.824219 35.84375 3.839844 35.609375 3.824219 35.59375 C 3.816406 35.59375 3.027344 35.777344 2.070312 36.039062 Z M 2.269531 37.347656 C 2.269531 37.554688 2.226562 37.753906 2.1875 37.789062 C 2.105469 37.878906 1.0625 37.472656 1.0625 37.347656 C 1.0625 37.28125 1.800781 37.042969 2.171875 36.992188 C 2.226562 36.976562 2.269531 37.148438 2.269531 37.347656 Z M 2.269531 37.347656 "/>
<path style=" stroke:none;fill-rule:nonzero;fill:rgb(0%,0%,0%);fill-opacity:1;" d="M 77.039062 39.027344 L 76.398438 39.085938 L 76.398438 39.890625 C 76.398438 40.882812 76.503906 41.289062 76.75 41.289062 C 76.882812 41.289062 76.933594 41.105469 76.933594 40.640625 L 76.933594 39.980469 L 78 39.980469 L 78 40.503906 C 78 40.867188 78.050781 41.03125 78.183594 41.03125 C 78.320312 41.03125 78.398438 40.847656 78.429688 40.46875 C 78.46875 39.945312 78.480469 39.914062 78.945312 39.875 C 79.464844 39.839844 79.597656 40.011719 79.597656 40.792969 C 79.597656 41.054688 79.648438 41.132812 79.800781 41.082031 C 80.015625 40.988281 80.066406 40.304688 79.917969 39.417969 L 79.828125 38.9375 L 78.75 38.96875 C 78.164062 38.972656 77.386719 39.003906 77.039062 39.027344 Z M 77.039062 39.027344 "/>
<path style=" stroke:none;fill-rule:nonzero;fill:rgb(0%,0%,0%);fill-opacity:1;" d="M 0.4375 39.515625 C 0.105469 39.804688 0.0664062 39.914062 0.03125 40.898438 C -0.015625 41.480469 0.03125 42.023438 0.0820312 42.074219 C 0.148438 42.140625 0.960938 42.148438 1.90625 42.109375 L 3.601562 42.03125 L 3.601562 41.132812 L 2.082031 41.171875 C 1.242188 41.195312 0.519531 41.1875 0.46875 41.132812 C 0.289062 40.972656 0.535156 40.386719 0.8125 40.230469 C 1.226562 40.023438 1.734375 40.269531 1.734375 40.699219 C 1.734375 40.882812 1.769531 41.03125 1.816406 41.03125 C 1.867188 41.03125 2.292969 40.847656 2.761719 40.609375 C 3.585938 40.21875 3.617188 40.179688 3.550781 39.808594 C 3.503906 39.601562 3.46875 39.382812 3.46875 39.316406 C 3.46875 39.25 3.167969 39.382812 2.796875 39.589844 L 2.148438 39.972656 L 1.75 39.589844 C 1.265625 39.121094 0.929688 39.09375 0.4375 39.515625 Z M 0.4375 39.515625 "/>
<path style=" stroke:none;fill-rule:nonzero;fill:rgb(0%,0%,0%);fill-opacity:1;" d="M 76.398438 41.976562 C 76.398438 42.175781 77.023438 42.332031 77.910156 42.332031 C 78.167969 42.332031 78.398438 42.371094 78.398438 42.421875 C 78.398438 42.488281 77.945312 42.671875 77.402344 42.84375 C 76.851562 43.027344 76.398438 43.199219 76.398438 43.25 C 76.398438 43.285156 76.832031 43.53125 77.34375 43.769531 C 77.863281 44.019531 78.320312 44.261719 78.347656 44.316406 C 78.386719 44.367188 77.929688 44.382812 77.359375 44.328125 L 76.292969 44.25 L 76.199219 44.671875 C 76.144531 44.90625 76.132812 45.113281 76.160156 45.136719 C 76.226562 45.203125 79.515625 45.425781 79.644531 45.371094 C 79.695312 45.351562 79.730469 45.128906 79.730469 44.890625 C 79.730469 44.484375 79.679688 44.433594 78.867188 44.085938 C 78.398438 43.871094 78 43.679688 78 43.640625 C 78 43.597656 78.429688 43.421875 78.9375 43.25 C 79.835938 42.945312 79.867188 42.917969 79.867188 42.503906 C 79.867188 42.25 79.785156 42.042969 79.710938 42.007812 C 79.613281 41.976562 78.824219 41.925781 77.976562 41.875 C 76.652344 41.808594 76.398438 41.824219 76.398438 41.976562 Z M 76.398438 41.976562 "/>
<path style=" stroke:none;fill-rule:nonzero;fill:rgb(0%,0%,0%);fill-opacity:1;" d="M 3.109375 44.757812 C 3.066406 44.863281 3.09375 45.023438 3.167969 45.097656 C 3.386719 45.304688 3.800781 45.164062 3.839844 44.839844 C 3.875 44.605469 3.824219 44.550781 3.535156 44.550781 C 3.347656 44.550781 3.164062 44.640625 3.109375 44.757812 Z M 3.109375 44.757812 "/>
<path style=" stroke:none;fill-rule:nonzero;fill:rgb(0%,0%,0%);fill-opacity:1;" d="M 75.945312 46.015625 C 75.878906 46.1875 75.601562 47.828125 75.601562 47.984375 C 75.601562 48.035156 75.675781 48.082031 75.789062 48.082031 C 75.976562 48.082031 76.132812 47.695312 76.132812 47.191406 C 76.132812 46.890625 76.25 46.851562 76.917969 46.976562 C 77.335938 47.074219 77.34375 47.074219 77.253906 47.636719 C 77.1875 48.085938 77.210938 48.207031 77.375 48.207031 C 77.492188 48.207031 77.597656 48.027344 77.65625 47.671875 C 77.730469 47.148438 77.761719 47.140625 78.164062 47.214844 C 78.386719 47.25 78.625 47.296875 78.691406 47.296875 C 78.773438 47.296875 78.789062 47.554688 78.734375 47.945312 C 78.652344 48.472656 78.683594 48.597656 78.839844 48.597656 C 79.070312 48.597656 79.457031 46.695312 79.257812 46.527344 C 79.1875 46.460938 78.535156 46.3125 77.796875 46.195312 C 77.070312 46.082031 76.363281 45.949219 76.226562 45.914062 C 76.109375 45.867188 75.976562 45.921875 75.945312 46.015625 Z M 75.945312 46.015625 "/>
<path style=" stroke:none;fill-rule:nonzero;fill:rgb(0%,0%,0%);fill-opacity:1;" d="M 2.070312 46.328125 C 1.265625 46.511719 0.601562 46.667969 0.585938 46.683594 C 0.574219 46.695312 0.601562 46.902344 0.625 47.140625 C 0.691406 47.539062 0.738281 47.585938 1.078125 47.503906 C 2.359375 47.246094 2.238281 47.214844 2.34375 47.746094 C 2.457031 48.308594 2.34375 48.414062 1.570312 48.53125 C 1.125 48.613281 1.0625 48.664062 1.0625 48.988281 C 1.0625 49.195312 1.125 49.410156 1.199219 49.449219 C 1.308594 49.515625 2.53125 49.308594 4.242188 48.921875 C 4.441406 48.871094 4.53125 48.753906 4.53125 48.5625 C 4.53125 48 4.375 47.917969 3.683594 48.085938 C 2.976562 48.257812 2.863281 48.207031 2.730469 47.59375 C 2.65625 47.191406 2.65625 47.191406 3.386719 47.03125 C 4.136719 46.875 4.195312 46.824219 4.054688 46.273438 C 3.945312 45.921875 3.921875 45.933594 2.070312 46.328125 Z M 2.070312 46.328125 "/>
<path style=" stroke:none;fill-rule:nonzero;fill:rgb(0%,0%,0%);fill-opacity:1;" d="M 75.355469 48.820312 C 75.386719 48.976562 75.707031 49.136719 76.398438 49.316406 C 76.949219 49.472656 77.492188 49.632812 77.597656 49.671875 C 77.707031 49.707031 77.148438 49.945312 76.347656 50.195312 C 75.214844 50.542969 74.867188 50.699219 74.785156 50.921875 C 74.71875 51.082031 74.710938 51.210938 74.730469 51.210938 C 74.777344 51.210938 75.453125 51.378906 76.265625 51.601562 C 77.929688 52.042969 78.132812 52.074219 78.132812 51.808594 C 78.132812 51.695312 77.8125 51.527344 77.304688 51.378906 L 76.464844 51.136719 L 77.441406 50.816406 C 78.429688 50.492188 78.554688 50.386719 78.707031 49.773438 C 78.789062 49.433594 78.757812 49.433594 77.15625 49.019531 C 75.269531 48.53125 75.304688 48.53125 75.355469 48.820312 Z M 75.355469 48.820312 "/>
<path style=" stroke:none;fill-rule:nonzero;fill:rgb(0%,0%,0%);fill-opacity:1;" d="M 4.175781 49.855469 C 4.136719 49.957031 4.195312 50.152344 4.324219 50.269531 C 4.515625 50.46875 4.546875 50.46875 4.746094 50.269531 C 5.03125 49.996094 4.894531 49.640625 4.53125 49.640625 C 4.390625 49.640625 4.226562 49.738281 4.175781 49.855469 Z M 4.175781 49.855469 "/>
<path style=" stroke:none;fill-rule:nonzero;fill:rgb(0%,0%,0%);fill-opacity:1;" d="M 4.136719 51.121094 C 3.945312 51.195312 3.773438 51.277344 3.75 51.304688 C 3.71875 51.3125 3.773438 51.511719 3.867188 51.734375 C 3.988281 52.03125 4.09375 52.113281 4.257812 52.042969 C 4.730469 51.835938 5.117188 51.925781 5.320312 52.28125 C 5.507812 52.605469 5.507812 52.6875 5.335938 53 C 5.097656 53.429688 4.105469 53.953125 3.519531 53.953125 C 2.789062 53.953125 2.410156 53.167969 2.84375 52.519531 C 2.976562 52.296875 2.960938 52.230469 2.796875 52.125 C 2.277344 51.800781 2.070312 53.183594 2.53125 53.921875 C 2.863281 54.449219 3.535156 54.863281 4.070312 54.863281 C 4.984375 54.863281 5.996094 53.96875 5.996094 53.140625 C 5.996094 52.605469 5.65625 51.859375 5.171875 51.363281 C 4.710938 50.914062 4.644531 50.898438 4.136719 51.121094 Z M 4.136719 51.121094 "/>
<path style=" stroke:none;fill-rule:nonzero;fill:rgb(0%,0%,0%);fill-opacity:1;" d="M 74.011719 52.917969 C 73.9375 53.15625 73.867188 53.355469 73.867188 53.363281 C 73.867188 53.375 74.492188 53.628906 75.28125 53.902344 C 76.769531 54.433594 76.75 54.417969 76.449219 55.167969 C 76.414062 55.269531 76.464844 55.386719 76.570312 55.425781 C 76.71875 55.476562 76.890625 55.179688 77.253906 54.25 C 77.789062 52.859375 77.8125 52.777344 77.542969 52.777344 C 77.441406 52.777344 77.292969 52.949219 77.210938 53.167969 C 77.148438 53.375 77.054688 53.5625 77.023438 53.5625 C 77 53.5625 76.375 53.324219 75.609375 53.035156 C 74.867188 52.746094 74.226562 52.519531 74.195312 52.519531 C 74.175781 52.519531 74.09375 52.695312 74.011719 52.917969 Z M 74.011719 52.917969 "/>
<path style=" stroke:none;fill-rule:nonzero;fill:rgb(0%,0%,0%);fill-opacity:1;" d="M 24.003906 76.601562 L 24.003906 77.0625 L 60.804688 77.0625 L 60.804688 76.144531 L 24.003906 76.144531 Z M 24.003906 76.601562 "/>
<path style=" stroke:none;fill-rule:nonzero;fill:rgb(0%,0%,0%);fill-opacity:1;" d="M 29.867188 82.078125 L 29.867188 85.546875 L 32.121094 85.546875 L 32.15625 84.265625 L 32.203125 83 L 33.066406 82.933594 C 34.597656 82.816406 35.335938 82.113281 35.335938 80.78125 C 35.335938 79.960938 35 79.296875 34.398438 78.953125 C 34.003906 78.734375 33.652344 78.695312 31.90625 78.652344 L 29.867188 78.601562 Z M 32.8125 79.746094 C 32.910156 79.863281 32.984375 80.285156 32.984375 80.78125 C 32.984375 81.65625 32.8125 82.023438 32.386719 82.023438 C 32.15625 82.023438 32.136719 81.90625 32.136719 80.78125 C 32.136719 79.65625 32.15625 79.539062 32.386719 79.539062 C 32.523438 79.539062 32.707031 79.636719 32.8125 79.746094 Z M 32.8125 79.746094 "/>
<path style=" stroke:none;fill-rule:nonzero;fill:rgb(0%,0%,0%);fill-opacity:1;" d="M 35.996094 81.136719 C 35.996094 83.304688 36.042969 83.734375 36.25 84.191406 C 36.75 85.234375 37.589844 85.597656 39.332031 85.523438 C 40.335938 85.480469 40.585938 85.414062 41.0625 85.101562 C 42.015625 84.488281 42.136719 84.074219 42.136719 81.136719 L 42.136719 78.628906 L 41.0625 78.628906 L 41.0625 83.75 L 40.675781 84.125 C 40.164062 84.636719 39.226562 84.65625 38.734375 84.191406 C 38.304688 83.753906 38.238281 83.339844 38.296875 80.804688 L 38.332031 78.628906 L 35.996094 78.628906 Z M 35.996094 81.136719 "/>
<path style=" stroke:none;fill-rule:nonzero;fill:rgb(0%,0%,0%);fill-opacity:1;" d="M 43.199219 82.082031 L 43.199219 85.546875 L 44.257812 85.546875 L 44.292969 83.496094 L 44.332031 81.460938 L 45.921875 83.496094 L 47.507812 85.546875 L 49.332031 85.546875 L 49.332031 78.628906 L 48.332031 78.628906 L 48.371094 80.648438 C 48.398438 81.757812 48.363281 82.675781 48.304688 82.675781 C 48.25 82.675781 47.507812 81.773438 46.667969 80.664062 L 45.132812 78.636719 L 44.175781 78.636719 L 43.199219 78.628906 Z M 43.199219 82.082031 "/>
<path style=" stroke:none;fill-rule:nonzero;fill:rgb(0%,0%,0%);fill-opacity:1;" d="M 50.535156 82.082031 L 50.535156 85.546875 L 54.933594 85.546875 L 54.933594 84.503906 L 52.929688 84.503906 L 52.929688 82.542969 L 54.933594 82.542969 L 54.933594 81.632812 L 52.929688 81.632812 L 52.929688 79.539062 L 54.933594 79.539062 L 54.933594 78.628906 L 50.535156 78.628906 Z M 50.535156 82.082031 "/>
<path style=" stroke:none;fill-rule:nonzero;fill:rgb(0%,0%,0%);fill-opacity:1;" d="M 24.003906 87.574219 L 24.003906 88.023438 L 60.804688 88.023438 L 60.804688 87.113281 L 24.003906 87.113281 Z M 24.003906 87.574219 "/>
</g>
</svg>
